<svg xmlns="http://www.w3.org/2000/svg" viewBox="0 0 886 886"><path fill="#266" d="M561 212.2a324.4 324.4 0 1 0-.1 648.7 324.4 324.4 0 0 0 0-648.7zm184.8 358c0 11-9 20-20 20h-91.2c-11 0-20 9-20 20v91.2c0 11-9 20-20 20h-67.2c-11 0-20-9-20-20v-91.2c0-11-9-20-20-20H386.2a10 10 0 0 1-10-10V503c0-11 9-20 20-20h91.2c11 0 20-9 20-20v-91.2c0-11 9-20 20-20h67.2c11 0 20 9 20 20V463c0 11 9 20 20 20h91.2c11 0 20 9 20 20v67.2z"/><path fill="#266" d="M153.6 416.5c5.6 0 10.7-3.3 12.8-8.4L227 262.3c2-5 5.9-8.8 10.8-10.8l145.8-60.7c5.2-2.2 8.5-7.2 8.4-12.8a13.8 13.8 0 0 0-8.8-12.6L18.9 25.3a13.8 13.8 0 0 0-14.6 3l-.3.4C.2 32.5-1 38.3.9 43.3l140 364.4c2 5.3 7 8.8 12.7 8.8z"/></svg>