<svg xmlns="http://www.w3.org/2000/svg" viewBox="0 0 465 465"><path d="M262.6 262.6a42.6 42.6 0 0 0 12.4-29.4l90.8-123.5a7.5 7.5 0 0 0-10.5-10.5L231.8 190a42.2 42.2 0 0 0-41.8 41.8L99.2 355.3a7.5 7.5 0 0 0 10.5 10.5L233.2 275c11.1-.2 21.5-4.6 29.4-12.4zm-31.4-2.6c-1.7-.1-3.4.4-4.8 1.4l-86 63.3 63.2-86c1-1.5 1.5-3.2 1.4-4.9a27.6 27.6 0 0 1 28.8-28.8c1.7.1 3.4-.4 4.8-1.4l86-63.3-63.2 86c-1 1.5-1.5 3.2-1.4 4.9a27.6 27.6 0 0 1-28.8 28.8z"/><path d="M432.5 224.5h-35.3c-1.4-28.6-10-56.2-25.4-80.4a7.5 7.5 0 0 0-12.7 8 150.1 150.1 0 0 1-207 207 7.5 7.5 0 0 0-8 12.7 164.3 164.3 0 0 0 80.9 25.5v35.2a7.5 7.5 0 1 0 15 0v-35.2c40-1.8 76.4-18 104-43.4l10.8 10.8a7.5 7.5 0 0 0 10.6 0c3-2.9 3-7.6 0-10.6l-10.8-10.8c25.1-27.7 41-64 42.7-103.8h35.2a7.5 7.5 0 1 0 0-15zM232.5 224.5a8 8 0 1 0 0 16 8 8 0 0 0 0-16z"/><path d="M396.9 68.1C352.9 24.1 294.6 0 232.5 0S112 24.2 68.1 68.1C24.1 112.1 0 170.4 0 232.5S24.2 353 68.1 396.9c44 44 102.3 68.1 164.4 68.1s120.5-24.2 164.4-68.1c44-44 68.1-102.3 68.1-164.4S440.8 112 396.9 68.1zM232.5 450C112.5 450 15 352.4 15 232.5S112.6 15 232.5 15 450 112.6 450 232.5 352.4 450 232.5 450z"/><path d="M103.6 323.2a7.5 7.5 0 0 0 2.3-10.4 150.1 150.1 0 0 1 207-207 7.5 7.5 0 0 0 8-12.6A164.3 164.3 0 0 0 240 67.7V32.5a7.5 7.5 0 1 0-15 0v35.2a164.3 164.3 0 0 0-103.3 42.7L111 99.6a7.5 7.5 0 0 0-10.6 10.6L111 121a164.3 164.3 0 0 0-43.3 103.5H32.5a7.5 7.5 0 1 0 0 15h35.2c1.2 29 10 57 25.5 81.4a7.5 7.5 0 0 0 10.4 2.3z"/></svg>