<svg xmlns="http://www.w3.org/2000/svg" viewBox="0 0 396 396"><path d="M304 331h-43c-1 0-3-1-3-3v-10c0-2-1-3-2-3h-61c-2 0-3 1-3 3v10c0 2-1 3-3 3h-32c-2 0-3 1-3 3v12c0 1 1 3 3 3h147c2 0 3-2 3-3v-12c0-2-1-3-3-3zM377 46H69c-11 0-20 9-20 20v51c0 6 0 7 4 7h8c4 0 3-1 3-8V66c0-3 2-5 5-5h308c3 0 5 2 5 5v190H162s-8 0-8 10v24c0 10 8 10 8 10h215c11 0 19-9 19-20V66c0-11-8-20-19-20zM223 283a9 9 0 1 1 0-18 9 9 0 0 1 0 18z"/><path d="M124 142H13c-7 0-13 5-13 12v184c0 6 6 12 13 12h111c7 0 13-6 13-12V154c0-7-6-12-13-12zm-69 12h27a2 2 0 0 1 0 5H55a2 2 0 1 1 0-5zm13 187a6 6 0 1 1 0-13 6 6 0 0 1 0 13zm58-19c0 2-1 3-3 3H14c-2 0-3-1-3-3V170c0-2 1-3 3-3h109c2 0 3 1 3 3v152z"/></svg>
