<svg xmlns="http://www.w3.org/2000/svg" viewBox="9 -628 412 288"><path fill="#266" d="M128-506.5a70.2 70.2 0 0 0 1.5-100.4 70 70 0 0 0-99 99A202.6 202.6 0 0 0 80-472.6c.3 0 26.7-13.5 48-33.9zm153.9 6.8a56.1 56.1 0 1 0-78-1.2 162 162 0 0 0 39.6 28.3c.3 0 21.3-10.8 38.4-27zm125.9 6.7l.9-.8a42 42 0 1 0-59.4 0 121.5 121.5 0 0 0 29.7 21.2c.2 0 16-8 28.8-20.3zm-291 43.8l-1.3 1.3a63 63 0 1 0 89 0 182.3 182.3 0 0 0-44.5-31.8c-.3 0-24 12.2-43.2 30.5zm160.6-6.8l-1 1a49 49 0 1 0 69.2 0 141.8 141.8 0 0 0-34.6-24.7c-.2 0-18.7 9.5-33.6 23.7z"/></svg>