<svg xmlns="http://www.w3.org/2000/svg" viewBox="0 0 35.49 35.49"><path d="M31.85 25.53c0 1.94-1.38 4.06-3.08 4.06s-3.08-2.11-3.08-4.06 1.38-2.97 3.08-2.97 3.08 1.03 3.08 2.97zm-28.2 0c0 1.94 1.37 4.06 3.07 4.06s3.08-2.11 3.08-4.06-1.38-2.97-3.08-2.97-3.08 1.03-3.08 2.97zm11.02 0c0 1.94 1.37 4.06 3.08 4.06 1.7 0 3.08-2.11 3.08-4.06s-1.38-2.97-3.08-2.97c-1.7 0-3.08 1.03-3.08 2.97zm18.82 5.38c-.26-.25-.6-.4-.96-.4H25c-.74 0-1.35.6-1.35 1.36v3.62h10.19l.04-3.61c0-.36-.14-.71-.4-.97zm-23-.4H2.95c-.74 0-1.35.6-1.35 1.36v3.62h10.18l.05-3.61a1.36 1.36 0 0 0-1.36-1.37zm11.02 0h-7.52c-.75 0-1.36.6-1.36 1.36v3.62h10.19l.04-3.61c0-.36-.14-.7-.4-.97s-.6-.4-.95-.4zM32.72 3.45v13.58c0 1.9-1.54 3.44-3.44 3.44H13.49v-9.3l2 2.7c.32.45.93.57 1.4.3l2.38-1.44a1.07 1.07 0 1 0-1.1-1.83l-1.54.93-1.92-2.6c-.2-.28-.52-.44-.86-.44h-2.3l-.4.53.73 4.2-1 .94-1-.95.74-4.19-.4-.53H7.9c-.6 0-1.07.48-1.07 1.07v6.95a1.07 1.07 0 0 0 1.43 1v2.66H6.2a3.45 3.45 0 0 1-3.44-3.44V3.45C2.77 1.55 4.3 0 6.2 0h23.07c1.9 0 3.44 1.54 3.44 3.45zm-19.4 1.4c0-1.53-1.1-2.34-2.44-2.34-1.34 0-2.43.81-2.43 2.35 0 1.53 1.09 3.2 2.43 3.2s2.43-1.67 2.43-3.2z"/></svg>